<svg width="980" height="430" viewBox="0 0 980 430" fill="none" xmlns="http://www.w3.org/2000/svg">
  <rect width="980" height="430" rx="24" fill="#020617"/>
  <rect x="24" y="24" width="932" height="382" rx="20" fill="#0F172A" stroke="#1E293B"/>
  <defs>
    <marker id="ppArrow" markerWidth="10" markerHeight="10" refX="8" refY="5" orient="auto">
      <path d="M0 0L10 5L0 10V0Z" fill="#A78BFA"/>
    </marker>
  </defs>

  <text x="48" y="60" fill="#E2E8F0" font-size="28" font-family="Arial, sans-serif" font-weight="700">
    MVC vs MVP vs MVVM
  </text>
  <text x="48" y="88" fill="#94A3B8" font-size="15" font-family="Arial, sans-serif">
    All three split UI, state and coordination differently.
  </text>

  <g transform="translate(54 122)">
    <rect width="260" height="246" rx="20" fill="#111827" stroke="#334155"/>
    <text x="24" y="34" fill="#F8FAFC" font-size="24" font-family="Arial, sans-serif" font-weight="700">MVC</text>
    <rect x="20" y="62" width="80" height="52" rx="12" fill="#1E293B"/>
    <rect x="136" y="62" width="100" height="52" rx="12" fill="#1E293B"/>
    <rect x="78" y="160" width="100" height="52" rx="12" fill="#1E293B"/>
    <text x="41" y="93" fill="#E2E8F0" font-size="18" font-family="Arial, sans-serif">View</text>
    <text x="153" y="93" fill="#E2E8F0" font-size="18" font-family="Arial, sans-serif">Controller</text>
    <text x="106" y="191" fill="#E2E8F0" font-size="18" font-family="Arial, sans-serif">Model</text>
    <path d="M100 88H136" stroke="#A78BFA" stroke-width="3" marker-end="url(#ppArrow)"/>
    <path d="M168 114V160" stroke="#A78BFA" stroke-width="3" marker-end="url(#ppArrow)"/>
    <path d="M118 160L82 114" stroke="#A78BFA" stroke-width="3" marker-end="url(#ppArrow)"/>
    <text x="22" y="232" fill="#94A3B8" font-size="13" font-family="Arial, sans-serif">
      Controller coordinates user input
    </text>
  </g>

  <g transform="translate(360 122)">
    <rect width="260" height="246" rx="20" fill="#111827" stroke="#334155"/>
    <text x="24" y="34" fill="#F8FAFC" font-size="24" font-family="Arial, sans-serif" font-weight="700">MVP</text>
    <rect x="20" y="62" width="80" height="52" rx="12" fill="#1E293B"/>
    <rect x="136" y="62" width="100" height="52" rx="12" fill="#1E293B"/>
    <rect x="78" y="160" width="100" height="52" rx="12" fill="#1E293B"/>
    <text x="41" y="93" fill="#E2E8F0" font-size="18" font-family="Arial, sans-serif">View</text>
    <text x="158" y="93" fill="#E2E8F0" font-size="18" font-family="Arial, sans-serif">Presenter</text>
    <text x="106" y="191" fill="#E2E8F0" font-size="18" font-family="Arial, sans-serif">Model</text>
    <path d="M100 88H136" stroke="#A78BFA" stroke-width="3" marker-end="url(#ppArrow)"/>
    <path d="M136 96H100" stroke="#A78BFA" stroke-width="3" marker-end="url(#ppArrow)"/>
    <path d="M168 114V160" stroke="#A78BFA" stroke-width="3" marker-end="url(#ppArrow)"/>
    <text x="22" y="232" fill="#94A3B8" font-size="13" font-family="Arial, sans-serif">
      Presenter actively drives the View
    </text>
  </g>

  <g transform="translate(666 122)">
    <rect width="260" height="246" rx="20" fill="#111827" stroke="#334155"/>
    <text x="24" y="34" fill="#F8FAFC" font-size="24" font-family="Arial, sans-serif" font-weight="700">MVVM</text>
    <rect x="20" y="62" width="80" height="52" rx="12" fill="#1E293B"/>
    <rect x="130" y="62" width="110" height="52" rx="12" fill="#1E293B"/>
    <rect x="78" y="160" width="100" height="52" rx="12" fill="#1E293B"/>
    <text x="41" y="93" fill="#E2E8F0" font-size="18" font-family="Arial, sans-serif">View</text>
    <text x="145" y="93" fill="#E2E8F0" font-size="18" font-family="Arial, sans-serif">ViewModel</text>
    <text x="106" y="191" fill="#E2E8F0" font-size="18" font-family="Arial, sans-serif">Model</text>
    <path d="M100 88H130" stroke="#A78BFA" stroke-width="3" marker-end="url(#ppArrow)"/>
    <path d="M130 96H100" stroke="#A78BFA" stroke-width="3" marker-end="url(#ppArrow)"/>
    <path d="M176 114V160" stroke="#A78BFA" stroke-width="3" marker-end="url(#ppArrow)"/>
    <text x="22" y="232" fill="#94A3B8" font-size="13" font-family="Arial, sans-serif">
      Binding keeps View and ViewModel in sync
    </text>
  </g>
</svg>
