<svg width="339" height="66" viewBox="0 0 339 66" fill="none" xmlns="http://www.w3.org/2000/svg">
<path d="M35.008 61V51.544H37.84C38.2453 51.544 38.592 51.6027 38.88 51.72C39.1787 51.8373 39.4027 52.04 39.552 52.328C39.712 52.6053 39.792 52.9893 39.792 53.48V58.936C39.792 59.48 39.7067 59.9013 39.536 60.2C39.3653 60.4987 39.12 60.7067 38.8 60.824C38.4907 60.9413 38.128 61 37.712 61H35.008ZM36.048 60.424H37.584C37.9467 60.424 38.2347 60.328 38.448 60.136C38.672 59.9333 38.784 59.5493 38.784 58.984V53.608C38.784 53.0427 38.672 52.6587 38.448 52.456C38.2347 52.2533 37.9467 52.152 37.584 52.152H36.048V60.424ZM41.6323 61V53.08H45.6323V53.784H42.6723V56.488H45.0403V57.256H42.6723V60.296H45.6323V61H41.6323ZM48.8636 61.096C48.0636 61.096 47.4876 60.9147 47.1356 60.552C46.7836 60.1893 46.6076 59.6133 46.6076 58.824V58.376H47.6156V58.872C47.6156 59.448 47.7223 59.864 47.9356 60.12C48.149 60.3653 48.469 60.488 48.8956 60.488C49.2903 60.488 49.6156 60.3813 49.8716 60.168C50.1383 59.9547 50.2716 59.5707 50.2716 59.016C50.2716 58.6213 50.197 58.3227 50.0476 58.12C49.909 57.9173 49.701 57.7573 49.4236 57.64C49.1463 57.5227 48.805 57.3947 48.3996 57.256C48.069 57.1387 47.7703 56.9947 47.5036 56.824C47.237 56.6533 47.029 56.4347 46.8796 56.168C46.7303 55.9013 46.6556 55.5653 46.6556 55.16C46.6556 54.4773 46.8316 53.96 47.1836 53.608C47.5356 53.2453 48.1223 53.064 48.9436 53.064C49.6583 53.064 50.213 53.2187 50.6076 53.528C51.0023 53.8373 51.1996 54.2747 51.1996 54.84V55.672H50.2236V55.048C50.2236 54.632 50.117 54.3173 49.9036 54.104C49.6903 53.8907 49.3756 53.784 48.9596 53.784C48.501 53.784 48.1703 53.896 47.9676 54.12C47.765 54.3333 47.6636 54.6693 47.6636 55.128C47.6636 55.4693 47.7383 55.7413 47.8876 55.944C48.0476 56.136 48.2503 56.2907 48.4956 56.408C48.741 56.5147 49.0023 56.6107 49.2796 56.696C49.781 56.856 50.1756 57.0213 50.4636 57.192C50.7623 57.3627 50.9756 57.5813 51.1036 57.848C51.2316 58.1147 51.2956 58.4613 51.2956 58.888C51.2956 59.6987 51.0663 60.2693 50.6076 60.6C50.149 60.9307 49.5676 61.096 48.8636 61.096ZM52.8666 61V53.08H53.8586V61H52.8666ZM57.7401 61.144C57.3348 61.144 56.9721 61.096 56.6521 61C56.3428 60.904 56.0975 60.7173 55.9161 60.44C55.7455 60.1627 55.6601 59.7627 55.6601 59.24V54.744C55.6601 54.0507 55.8628 53.5813 56.2681 53.336C56.6841 53.0907 57.2655 52.968 58.0121 52.968C58.7588 52.968 59.3348 53.096 59.7401 53.352C60.1455 53.5973 60.3481 54.0613 60.3481 54.744V55.768H59.3881V54.712C59.3881 54.2747 59.2761 53.9813 59.0521 53.832C58.8281 53.672 58.4761 53.592 57.9961 53.592C57.5481 53.592 57.2068 53.672 56.9721 53.832C56.7481 53.9813 56.6361 54.2747 56.6361 54.712V59.432C56.6361 59.8907 56.7535 60.1947 56.9881 60.344C57.2228 60.4827 57.5588 60.552 57.9961 60.552C58.4015 60.552 58.7321 60.456 58.9881 60.264C59.2548 60.072 59.3881 59.7947 59.3881 59.432V57.8H58.1881V57.208H60.3481V61H59.6121L59.5641 60.264C59.5215 60.328 59.4788 60.3867 59.4361 60.44C59.3935 60.4827 59.3508 60.5253 59.3081 60.568C59.1695 60.7387 58.9668 60.8773 58.7001 60.984C58.4441 61.0907 58.1241 61.144 57.7401 61.144ZM62.101 61V53.08H62.981L65.877 59V53.08H66.757V61H65.877L62.997 55.32V61H62.101ZM68.7104 61V53.08H72.7104V53.784H69.7504V56.488H72.1184V57.256H69.7504V60.296H72.7104V61H68.7104ZM74.0698 61V53.08H76.8538C77.1844 53.08 77.4938 53.1227 77.7818 53.208C78.0804 53.2933 78.3204 53.448 78.5018 53.672C78.6831 53.896 78.7738 54.2267 78.7738 54.664V59.272C78.7738 59.8907 78.6031 60.3333 78.2618 60.6C77.9311 60.8667 77.4191 61 76.7258 61H74.0698ZM75.0938 60.44H76.5978C76.8111 60.44 77.0084 60.4133 77.1898 60.36C77.3711 60.3067 77.5151 60.2 77.6218 60.04C77.7284 59.88 77.7818 59.6453 77.7818 59.336V54.792C77.7818 54.3867 77.6858 54.0987 77.4938 53.928C77.3018 53.7573 77.0031 53.672 76.5978 53.672H75.0938V60.44ZM85.6025 61.112C85.0265 61.112 84.5625 61 84.2105 60.776C83.8585 60.552 83.6025 60.2427 83.4425 59.848C83.2932 59.4533 83.2185 58.9947 83.2185 58.472C83.2185 57.832 83.3412 57.3147 83.5865 56.92C83.8318 56.5147 84.1945 56.2427 84.6745 56.104C84.5678 55.9653 84.4665 55.7733 84.3705 55.528C84.2852 55.272 84.2425 54.9733 84.2425 54.632C84.2638 54.088 84.4292 53.6613 84.7385 53.352C85.0585 53.0427 85.5492 52.888 86.2105 52.888C86.5412 52.888 86.8398 52.9093 87.1065 52.952C87.3838 52.9947 87.6185 53.048 87.8105 53.112C88.0025 53.1653 88.1358 53.2133 88.2105 53.256V54.024C88.1678 54.0027 88.0558 53.9707 87.8745 53.928C87.7038 53.8747 87.4905 53.8267 87.2345 53.784C86.9785 53.7307 86.7118 53.704 86.4345 53.704C86.0825 53.704 85.8105 53.7733 85.6185 53.912C85.4265 54.0507 85.2985 54.232 85.2345 54.456C85.1812 54.6693 85.1812 54.8987 85.2345 55.144C85.2878 55.3787 85.3785 55.6027 85.5065 55.816C85.5492 55.8907 85.6345 56.008 85.7625 56.168C85.8905 56.3173 86.0292 56.488 86.1785 56.68C86.3385 56.872 86.4985 57.064 86.6585 57.256C86.8185 57.4373 86.9572 57.5973 87.0745 57.736C87.2025 57.8747 87.2932 57.976 87.3465 58.04L87.3625 56.328H89.6025V57H88.0825C88.0825 57.3093 88.0825 57.5653 88.0825 57.768C88.0825 57.96 88.0772 58.1253 88.0665 58.264C88.0665 58.392 88.0612 58.5307 88.0505 58.68C88.3598 59 88.6532 59.288 88.9305 59.544C89.2078 59.8 89.4318 59.976 89.6025 60.072V61.032C89.4318 61.0107 89.1758 60.8667 88.8345 60.6C88.4932 60.3227 88.1305 59.9973 87.7465 59.624C87.6398 60.0293 87.4692 60.3387 87.2345 60.552C87.0105 60.7653 86.7545 60.9147 86.4665 61C86.1785 61.0747 85.8905 61.112 85.6025 61.112ZM85.6345 60.392C86.0825 60.392 86.4345 60.2747 86.6905 60.04C86.9572 59.7947 87.1065 59.4693 87.1385 59.064C86.7438 58.6267 86.3545 58.2 85.9705 57.784C85.5865 57.3573 85.2878 57 85.0745 56.712C84.7652 56.808 84.5145 56.9893 84.3225 57.256C84.1412 57.512 84.0505 57.9013 84.0505 58.424C84.0398 59.0747 84.1785 59.5653 84.4665 59.896C84.7652 60.2267 85.1545 60.392 85.6345 60.392ZM94.2111 61V51.544H97.0431C97.4485 51.544 97.7951 51.6027 98.0831 51.72C98.3818 51.8373 98.6058 52.04 98.7551 52.328C98.9151 52.6053 98.9951 52.9893 98.9951 53.48V58.936C98.9951 59.48 98.9098 59.9013 98.7391 60.2C98.5685 60.4987 98.3231 60.7067 98.0031 60.824C97.6938 60.9413 97.3311 61 96.9151 61H94.2111ZM95.2511 60.424H96.7871C97.1498 60.424 97.4378 60.328 97.6511 60.136C97.8751 59.9333 97.9871 59.5493 97.9871 58.984V53.608C97.9871 53.0427 97.8751 52.6587 97.6511 52.456C97.4378 52.2533 97.1498 52.152 96.7871 52.152H95.2511V60.424ZM100.835 61V53.08H104.835V53.784H101.875V56.488H104.243V57.256H101.875V60.296H104.835V61H100.835ZM107.251 61L105.523 53.08H106.531L107.923 59.784H107.891L109.283 53.08H110.259L108.531 61H107.251ZM111.539 61V53.08H115.539V53.784H112.579V56.488H114.947V57.256H112.579V60.296H115.539V61H111.539ZM116.898 61V53.08H117.874V60.296H120.466V61H116.898ZM123.73 61.16C123.218 61.16 122.791 61.1067 122.45 61C122.109 60.8827 121.847 60.6747 121.666 60.376C121.495 60.0773 121.41 59.6613 121.41 59.128V54.728C121.41 54.0347 121.618 53.5707 122.034 53.336C122.45 53.0907 123.021 52.968 123.746 52.968C124.482 52.968 125.058 53.0907 125.474 53.336C125.89 53.5813 126.098 54.0453 126.098 54.728V59.128C126.098 59.672 126.007 60.0933 125.826 60.392C125.655 60.68 125.394 60.8827 125.042 61C124.69 61.1067 124.253 61.16 123.73 61.16ZM123.73 60.552C124.199 60.552 124.546 60.472 124.77 60.312C124.994 60.152 125.106 59.8587 125.106 59.432V54.712C125.106 54.264 124.989 53.9653 124.754 53.816C124.519 53.6667 124.178 53.592 123.73 53.592C123.293 53.592 122.957 53.6667 122.722 53.816C122.487 53.9653 122.37 54.264 122.37 54.712V59.432C122.37 59.8587 122.482 60.152 122.706 60.312C122.941 60.472 123.282 60.552 123.73 60.552ZM127.914 61V53.08H130.794C131.316 53.08 131.738 53.1867 132.058 53.4C132.388 53.6133 132.554 53.944 132.554 54.392V55.832C132.554 56.1307 132.506 56.4187 132.41 56.696C132.314 56.9733 132.127 57.2027 131.85 57.384C131.572 57.5547 131.151 57.64 130.586 57.64H128.954V61H127.914ZM128.954 57.048H130.298C130.714 57.048 131.028 56.9467 131.242 56.744C131.455 56.5307 131.562 56.1893 131.562 55.72V54.792C131.562 54.408 131.466 54.12 131.274 53.928C131.082 53.736 130.842 53.64 130.554 53.64H128.954V57.048ZM133.929 61V53.08H137.929V53.784H134.969V56.488H137.337V57.256H134.969V60.296H137.929V61H133.929ZM139.289 61V53.08H142.073C142.403 53.08 142.713 53.1227 143.001 53.208C143.299 53.2933 143.539 53.448 143.721 53.672C143.902 53.896 143.993 54.2267 143.993 54.664V59.272C143.993 59.8907 143.822 60.3333 143.481 60.6C143.15 60.8667 142.638 61 141.945 61H139.289ZM140.312 60.44H141.817C142.03 60.44 142.227 60.4133 142.409 60.36C142.59 60.3067 142.734 60.2 142.841 60.04C142.947 59.88 143.001 59.6453 143.001 59.336V54.792C143.001 54.3867 142.905 54.0987 142.713 53.928C142.521 53.7573 142.222 53.672 141.817 53.672H140.312V60.44ZM148.757 61V53.08H151.621C152.144 53.08 152.565 53.1867 152.885 53.4C153.205 53.6133 153.365 53.944 153.365 54.392V55.352C153.365 55.8427 153.205 56.216 152.885 56.472C152.736 56.6 152.56 56.6853 152.357 56.728C152.165 56.76 152 56.7813 151.861 56.792V56.776C152.075 56.776 152.277 56.7973 152.469 56.84C152.672 56.872 152.837 56.9467 152.965 57.064C153.125 57.192 153.248 57.352 153.333 57.544C153.429 57.736 153.477 57.9653 153.477 58.232V59.368C153.477 59.976 153.312 60.4027 152.981 60.648C152.651 60.8827 152.144 61 151.461 61H148.757ZM149.749 60.44H151.285C151.499 60.44 151.696 60.4187 151.877 60.376C152.059 60.3227 152.203 60.216 152.309 60.056C152.416 59.8853 152.469 59.6347 152.469 59.304V58.248C152.469 57.8747 152.357 57.6133 152.133 57.464C151.909 57.304 151.579 57.224 151.141 57.224H149.749V60.44ZM149.749 56.568H151.109C151.525 56.568 151.845 56.4827 152.069 56.312C152.293 56.1307 152.405 55.848 152.405 55.464V54.568C152.405 54.2587 152.304 54.0293 152.101 53.88C151.899 53.72 151.653 53.64 151.365 53.64H149.749V56.568ZM156.14 61V57.544L154.412 53.08H155.436L156.62 56.152L156.684 56.472L156.748 56.152L158.044 53.08H158.972L157.132 57.608V61H156.14Z" fill="#1066A5"/>
<path d="M203.432 47V18.104H192.152V12.44H222.104V18.104H210.824V47H203.432ZM225.65 47V12.44H233.042V47H225.65ZM229.106 47V41.336H251.378V47H229.106ZM229.106 32.12V26.552H249.698V32.12H229.106ZM229.106 18.104V12.44H250.802V18.104H229.106ZM270.752 47.48C268.256 47.48 265.952 47.048 263.84 46.184C261.728 45.288 259.888 44.04 258.32 42.44C256.784 40.84 255.584 38.952 254.72 36.776C253.856 34.568 253.424 32.168 253.424 29.576C253.424 26.984 253.84 24.616 254.672 22.472C255.536 20.328 256.736 18.472 258.272 16.904C259.84 15.304 261.68 14.088 263.792 13.256C265.904 12.392 268.224 11.96 270.752 11.96C273.6 11.96 276.16 12.52 278.432 13.64C280.736 14.728 282.608 16.28 284.048 18.296C285.52 20.28 286.416 22.616 286.736 25.304H279.536C279.12 22.84 278.112 20.984 276.512 19.736C274.912 18.456 273.008 17.816 270.8 17.816C268.848 17.816 267.12 18.28 265.616 19.208C264.144 20.136 262.992 21.48 262.16 23.24C261.328 24.968 260.912 27.064 260.912 29.528C260.912 32.024 261.328 34.184 262.16 36.008C263.024 37.8 264.208 39.192 265.712 40.184C267.216 41.144 268.944 41.624 270.896 41.624C272.976 41.624 274.816 41 276.416 39.752C278.016 38.504 279.056 36.648 279.536 34.184H286.832C286.416 36.872 285.472 39.224 284 41.24C282.528 43.224 280.656 44.76 278.384 45.848C276.112 46.936 273.568 47.48 270.752 47.48ZM290.384 47V12.44H297.776V47H290.384ZM312.752 47V12.44H320.144V47H312.752ZM293.84 26.168H316.112V31.832H293.84V26.168Z" fill="#0D67A5"/>
<path d="M18.768 47.48C16.4 47.48 14.208 47.048 12.192 46.184C10.208 45.288 8.48 44.056 7.008 42.488C5.536 40.888 4.4 39.016 3.6 36.872C2.8 34.696 2.4 32.312 2.4 29.72C2.4 27.128 2.8 24.76 3.6 22.616C4.4 20.44 5.52 18.568 6.96 17C8.432 15.4 10.16 14.168 12.144 13.304C14.16 12.408 16.352 11.96 18.72 11.96C21.312 11.96 23.632 12.488 25.68 13.544C27.76 14.6 29.456 16.088 30.768 18.008C32.112 19.928 32.944 22.168 33.264 24.728H29.328C28.944 21.88 27.808 19.64 25.92 18.008C24.064 16.344 21.68 15.512 18.768 15.512C16.304 15.512 14.144 16.12 12.288 17.336C10.432 18.52 8.992 20.184 7.968 22.328C6.944 24.44 6.432 26.904 6.432 29.72C6.432 32.536 6.944 35.016 7.968 37.16C8.992 39.272 10.432 40.936 12.288 42.152C14.144 43.336 16.288 43.928 18.72 43.928C21.696 43.928 24.128 43.096 26.016 41.432C27.936 39.768 29.072 37.528 29.424 34.712H33.36C33.04 37.272 32.208 39.512 30.864 41.432C29.552 43.352 27.856 44.84 25.776 45.896C23.728 46.952 21.392 47.48 18.768 47.48ZM39.7061 47V12.44H43.6421V47H39.7061ZM62.8421 47V12.44H66.7781V47H62.8421ZM41.7221 27.272H64.5701V30.728H41.7221V27.272ZM75.0499 47V12.44H78.9859V47H75.0499ZM77.0659 47V43.544H98.1859V47H77.0659ZM77.0659 30.728V27.272H96.4579V30.728H77.0659ZM77.0659 15.896V12.44H97.8019V15.896H77.0659ZM105.659 47V12.44H119.387C121.851 12.44 123.947 12.84 125.675 13.64C127.403 14.44 128.715 15.592 129.611 17.096C130.539 18.6 131.003 20.408 131.003 22.52C131.003 24.632 130.539 26.456 129.611 27.992C128.715 29.496 127.403 30.664 125.675 31.496C123.947 32.328 121.851 32.744 119.387 32.744H108.539V29.288H119.243C121.803 29.288 123.739 28.712 125.051 27.56C126.395 26.376 127.067 24.696 127.067 22.52C127.067 20.344 126.411 18.696 125.099 17.576C123.787 16.456 121.835 15.896 119.243 15.896H109.595V47H105.659ZM137.159 47V12.44H141.095V47H137.159ZM164.083 47.48C161.683 47.48 159.475 47.048 157.459 46.184C155.475 45.288 153.747 44.04 152.275 42.44C150.803 40.808 149.651 38.904 148.819 36.728C148.019 34.552 147.619 32.168 147.619 29.576C147.619 26.152 148.323 23.112 149.731 20.456C151.139 17.8 153.075 15.72 155.539 14.216C158.035 12.712 160.867 11.96 164.035 11.96C167.267 11.96 170.115 12.712 172.579 14.216C175.075 15.72 177.027 17.8 178.435 20.456C179.843 23.112 180.547 26.168 180.547 29.624C180.547 32.216 180.131 34.6 179.299 36.776C178.499 38.952 177.363 40.84 175.891 42.44C174.419 44.04 172.675 45.288 170.659 46.184C168.643 47.048 166.451 47.48 164.083 47.48ZM164.035 43.928C166.499 43.928 168.659 43.32 170.515 42.104C172.403 40.856 173.875 39.144 174.931 36.968C175.987 34.792 176.515 32.312 176.515 29.528C176.515 26.776 175.987 24.344 174.931 22.232C173.907 20.12 172.451 18.472 170.563 17.288C168.707 16.104 166.531 15.512 164.035 15.512C161.539 15.512 159.363 16.104 157.507 17.288C155.651 18.472 154.211 20.12 153.187 22.232C152.163 24.312 151.651 26.744 151.651 29.528C151.651 32.344 152.163 34.84 153.187 37.016C154.243 39.16 155.699 40.856 157.555 42.104C159.411 43.32 161.571 43.928 164.035 43.928Z" fill="#0D67A5"/>
<rect x="185.5" y="2.5" width="143" height="53" stroke="#0D67A5" stroke-width="5"/>
</svg>
